<svg width="24" height="22" viewBox="0 0 24 22" fill="none" xmlns="http://www.w3.org/2000/svg">
<path d="M21.3237 8.4249C20.565 8.4249 19.8973 8.7293 19.4066 9.20553C17.6007 7.99286 15.1676 7.21223 12.4715 7.12877L13.8726 1.00156L18.3342 1.97367C18.3342 3.03414 19.2245 3.89824 20.3171 3.89824C21.43 3.89824 22.3253 3.0096 22.3253 1.94912C22.3253 0.888641 21.435 0 20.3171 0C19.5381 0 18.8653 0.456595 18.5315 1.08012L13.6046 0.0196385C13.3567 -0.0441866 13.1139 0.12765 13.0481 0.368221L11.5104 7.12386C8.83444 7.23187 6.42661 8.0125 4.61569 9.22517C4.12502 8.7293 3.43201 8.4249 2.67325 8.4249C-0.13925 8.4249 -1.05989 12.0875 1.51486 13.3394C1.42381 13.7273 1.38334 14.1397 1.38334 14.5521C1.38334 18.6664 6.15852 22 12.0213 22C17.9093 22 22.6845 18.6664 22.6845 14.5521C22.6845 14.1397 22.6389 13.7077 22.5277 13.3198C25.0518 12.0629 24.1211 8.4249 21.3237 8.4249ZM5.59703 13.5996C5.59703 12.5195 6.48732 11.6505 7.60523 11.6505C8.69786 11.6505 9.58815 12.5146 9.58815 13.5996C9.58815 14.6601 8.69786 15.5242 7.60523 15.5242C6.49237 15.5291 5.59703 14.6601 5.59703 13.5996ZM16.4373 18.1901C14.596 19.9772 9.40098 19.9772 7.55971 18.1901C7.35737 18.0183 7.35737 17.7139 7.55971 17.5175C7.73675 17.3457 8.05038 17.3457 8.22742 17.5175C9.63367 18.9168 14.2976 18.9413 15.7645 17.5175C15.9416 17.3457 16.2552 17.3457 16.4322 17.5175C16.6396 17.7139 16.6396 18.0183 16.4373 18.1901ZM16.3968 15.5291C15.3042 15.5291 14.4139 14.665 14.4139 13.6046C14.4139 12.5244 15.3042 11.6554 16.3968 11.6554C17.5097 11.6554 18.405 12.5195 18.405 13.6046C18.4 14.6601 17.5097 15.5291 16.3968 15.5291Z" fill="url(#paint0_linear_4_82)"/>
<defs>
<linearGradient id="paint0_linear_4_82" x1="0.464516" y1="4.4" x2="24.9976" y2="5.09508" gradientUnits="userSpaceOnUse">
<stop stop-color="#FFCC6A"/>
<stop offset="0.333333" stop-color="#FFDCA8"/>
<stop offset="0.666667" stop-color="#FFBB54"/>
<stop offset="1" stop-color="#C89A57"/>
</linearGradient>
</defs>
</svg>
