<svg width="1920" height="192" viewBox="0 0 1920 192" fill="none" xmlns="http://www.w3.org/2000/svg">
<path d="M0 150L21.4 145C42.6 140 85.4 130 128 136.6C170.6 143.4 213.4 166.6 256 170.6C298.6 174.6 341.4 159.4 384 162.4C426.6 165.4 469.4 186.6 512 179.4C554.6 172 597.4 136 640 123C682.6 110 725.4 120 768 138.6C810.6 157.4 853.4 184.6 896 190.4C938.6 196 981.4 180 1024 171C1066.6 162 1109.4 160 1152 163.6C1194.6 167.4 1237.4 176.6 1280 180C1322.6 183.4 1365.4 180.6 1408 166.6C1450.6 152.6 1493.4 127.4 1536 122C1578.6 116.6 1621.4 131.4 1664 148.4C1706.6 165.4 1749.4 184.6 1792 184C1834.6 183.4 1877.4 162.6 1898.6 152.4L1920 142V0H1898.6C1877.4 0 1834.6 0 1792 0C1749.4 0 1706.6 0 1664 0C1621.4 0 1578.6 0 1536 0C1493.4 0 1450.6 0 1408 0C1365.4 0 1322.6 0 1280 0C1237.4 0 1194.6 0 1152 0C1109.4 0 1066.6 0 1024 0C981.4 0 938.6 0 896 0C853.4 0 810.6 0 768 0C725.4 0 682.6 0 640 0C597.4 0 554.6 0 512 0C469.4 0 426.6 0 384 0C341.4 0 298.6 0 256 0C213.4 0 170.6 0 128 0C85.4 0 42.6 0 21.4 0H0V150Z" fill="url(#paint0_linear_28_33)"/>
<defs>
<linearGradient id="paint0_linear_28_33" x1="-6.364e-06" y1="118" x2="1920" y2="118" gradientUnits="userSpaceOnUse">
<stop stop-color="#070F1A"/>
<stop offset="0.510417" stop-color="#09111C"/>
<stop offset="1" stop-color="#070F1A"/>
</linearGradient>
</defs>
</svg>
