<svg width="237" height="60" viewBox="0 0 237 60" fill="none" xmlns="http://www.w3.org/2000/svg">
<g filter="url(#filter0_d_4_38)">
<path d="M19.8814 51.2345C19.5432 51.3777 19.2911 51.2536 19.1252 50.8619L18.9895 50.5415C18.9771 50.4627 18.9483 50.37 18.9031 50.2632L18.8465 50.1296L16.9971 47.1022C16.5859 46.4786 16.2984 46.0229 16.1346 45.7354C15.4465 44.5571 14.6891 43.2402 13.8625 41.7847C13.2073 40.6345 12.1134 38.7463 10.5809 36.12L10.2406 35.5398C9.12141 33.6413 8.45802 32.6206 8.25045 32.4776C8.26615 32.3659 8.31232 32.2519 8.38897 32.1354C8.46561 32.019 8.55734 31.9381 8.66415 31.8929C8.93118 31.7797 9.12805 31.7488 9.25477 31.8001C9.39928 31.8439 9.52056 31.9815 9.6186 32.2129L9.72041 32.4532L9.83353 32.7203L9.95797 33.014C12.9759 38.6014 15.8621 43.8036 18.6167 48.6207L18.6701 48.5981C18.5048 48.0592 18.0121 46.5988 17.1919 44.2166L16.9173 43.4196C16.0841 41.106 15.65 39.8831 15.615 39.751C15.4422 39.1943 15.2172 38.3658 14.94 37.2654L14.3442 34.9667L13.9039 33.7045C13.8312 33.4833 13.7647 33.3015 13.7044 33.1591C13.6543 32.9914 13.6231 32.8681 13.6107 32.7894L13.4903 32.4309C13.4828 32.4131 13.4804 32.3826 13.4831 32.3395C13.5036 32.2888 13.5331 32.2343 13.5714 32.1761C13.8206 32.0705 14.0072 32.065 14.1312 32.1594C14.2072 32.1902 14.2692 32.2374 14.3172 32.3011C14.3576 32.3469 14.3967 32.4144 14.4344 32.5034C14.5379 32.6485 14.5896 32.7211 14.5896 32.7211C15.1673 33.5892 16.5908 35.8837 18.86 39.6046C21.1292 43.3255 22.5938 45.7916 23.2539 47.0027L23.3566 47.0222L19.7632 35.789C19.5122 35.0975 19.1754 33.9804 18.7529 32.4377C18.3049 30.8847 17.8849 29.6454 17.4927 28.7197L17.3529 28.464L17.2511 28.2236C17.1531 27.9922 17.1386 27.8094 17.2077 27.6751C17.2693 27.523 17.4247 27.3942 17.6739 27.2886C17.7807 27.2434 17.9064 27.2427 18.0509 27.2864C18.2132 27.3226 18.317 27.3941 18.3622 27.501C18.4376 27.679 18.4114 27.8896 18.2834 28.1327C18.3088 28.143 18.3403 28.1926 18.378 28.2816C18.4233 28.3885 18.4545 28.5117 18.4717 28.6514C18.4991 28.7658 18.5152 28.8534 18.5201 28.9144C19.003 30.5995 19.7619 33.06 20.7968 36.296L22.6044 42.0497L23.2844 44.2497L24.1065 47.0824L24.55 48.5008C24.6405 48.7145 24.6727 48.8898 24.6468 49.0267C24.6386 49.1562 24.5366 49.2624 24.3408 49.3453C24.056 49.466 23.8416 49.4308 23.6977 49.2398C23.6169 49.1481 23.4757 48.9139 23.2742 48.5374L23.0778 48.1482C21.4891 45.5877 18.7819 40.9815 14.9561 34.3296L14.8533 34.3101L14.838 34.3481L14.8493 34.3748L19.6906 49.5201L19.8942 50.0007C20.1883 50.695 20.1841 51.1063 19.8814 51.2345Z" fill="url(#paint0_linear_4_38)"/>
<path d="M36.5076 44.2959C36.0884 44.4441 35.8101 44.44 35.6727 44.2835C35.5816 44.3157 35.5119 44.3506 35.4636 44.3882L35.2449 44.4655C34.8439 44.6073 34.5565 44.6063 34.3827 44.4627C34.3376 44.3351 34.3718 44.2 34.4854 44.0573L34.5738 43.8723L35.3667 43.5919L35.4374 43.4439L35.4051 43.1785L35.3164 42.8407C34.9233 41.7288 34.5448 40.7451 34.1808 39.8895L33.7685 38.8972L33.0081 36.9206C32.7568 36.2097 32.4072 35.1337 31.9592 33.6926L30.8926 30.5017C30.4029 29.1163 29.9835 28.0752 29.6346 27.3784C29.4512 27.3817 29.1682 27.451 28.7854 27.5863L28.4943 27.72C28.3914 27.7769 28.2761 27.8279 28.1485 27.873C27.8022 27.9954 27.5742 27.9017 27.4647 27.5918C27.4389 27.5189 27.4952 27.417 27.6334 27.2861C27.7717 27.1552 27.8955 27.0704 28.0049 27.0318C28.6975 26.7869 29.4031 26.5785 30.1215 26.4065C30.5472 26.2765 30.9954 26.2103 31.4662 26.2079C31.833 26.2013 32.0518 26.2982 32.1227 26.4987C32.1356 26.5352 32.134 26.6178 32.118 26.7465L31.5085 27.0235C31.3422 26.9592 31.0586 26.998 30.6576 27.1397L30.5499 27.2701C30.6626 27.4148 30.8607 27.8882 31.1442 28.6902C31.5695 29.8932 31.9438 30.981 32.2672 31.9535L33.3628 35.2265C33.6527 36.0468 34.0404 37.0273 34.5257 38.1681C35.0508 39.4794 35.4326 40.4722 35.671 41.1467L35.7967 41.5021C35.8236 41.6361 35.8725 41.8034 35.9434 42.0039C36.0916 42.4231 36.2091 42.6687 36.296 42.7405L36.288 42.8048C36.3525 42.9871 36.5852 43.0074 36.9862 42.8656C37.1503 42.8076 37.2837 42.7501 37.3867 42.6933L37.7968 42.5483C38.3254 42.3614 38.6348 42.3955 38.725 42.6507C38.783 42.8148 38.7767 42.9708 38.706 43.1188C38.6288 43.2486 38.4991 43.3458 38.3168 43.4102C38.1528 43.4682 38.0005 43.5015 37.86 43.5102C37.7078 43.5435 37.5496 43.5892 37.3856 43.6472C37.2762 43.6858 37.1283 43.7894 36.9417 43.9579C36.7617 44.1446 36.617 44.2572 36.5076 44.2959Z" fill="url(#paint1_linear_4_38)"/>
<path d="M45.7384 41.2874C45.4606 41.3705 45.2801 41.2732 45.197 40.9953C45.1305 40.7731 45.079 40.2638 45.0426 39.4675L45.01 38.448C45.0033 37.4814 44.9871 36.9212 44.9613 36.7675C44.969 36.3212 44.9178 35.5092 44.8075 34.3313C44.7047 33.1109 44.6369 32.2433 44.6039 31.7285C44.5895 31.2081 44.6022 30.3063 44.642 29.023C44.6488 27.4268 44.622 26.1231 44.5616 25.112C44.4957 24.0823 44.3519 23.1971 44.1303 22.4562C43.8524 22.5393 43.4255 22.6973 42.8494 22.9302C42.2918 23.1576 41.8649 23.3156 41.5685 23.4043C41.4574 23.4375 41.3509 23.4189 41.2491 23.3485C41.1473 23.278 41.0798 23.1872 41.0466 23.0761C40.9967 22.9094 41.2941 22.6893 41.9387 22.4157C42.5889 22.1606 43.2751 21.925 43.9975 21.7089C44.1271 21.6701 44.241 21.6461 44.3392 21.6369C44.4373 21.6277 44.5318 21.6398 44.6225 21.6732C44.7298 21.7622 44.7974 21.853 44.8251 21.9456C45.019 22.5939 45.0895 23.6726 45.0365 25.1818C45.0132 26.7225 45.0403 27.6225 45.1179 27.8818C45.151 28.1947 45.179 29.0642 45.202 30.4901L45.2071 31.2151C45.1873 35.3983 45.4397 38.4002 45.9642 40.2209C46.105 40.2192 46.3791 40.1573 46.7866 40.0354C47.0088 39.9689 47.1978 39.8922 47.3534 39.8053C47.5145 39.7369 47.7063 39.6695 47.9285 39.603C48.4657 39.4422 48.7703 39.4823 48.8423 39.7231C48.9143 39.9639 48.7374 40.148 48.3113 40.2754C48.015 40.3641 47.7437 40.4352 47.4973 40.4887L46.6472 40.6825C46.4435 40.7435 46.2563 40.86 46.0859 41.0321C45.8913 41.1912 45.7755 41.2763 45.7384 41.2874Z" fill="url(#paint2_linear_4_38)"/>
<path d="M64.1367 36.5503C63.8548 36.6181 63.6671 36.6233 63.5739 36.5662C63.4851 36.5279 63.3881 36.3722 63.2828 36.0993C62.784 34.7676 62.4752 33.9371 62.3563 33.6078L61.9444 32.5137C61.5083 32.519 61.027 32.5849 60.5006 32.7113L59.472 32.8988C59.0073 32.9507 58.6715 33.0015 58.4647 33.0512C58.3519 33.0783 58.2974 33.1411 58.3012 33.2396C58.3147 33.296 58.3121 33.3264 58.2933 33.331L58.3724 33.9085C58.4348 34.2514 58.494 34.9529 58.5498 36.0132C58.5777 36.5434 58.5598 36.9652 58.4959 37.2788C58.4223 37.6345 58.3196 37.8282 58.1881 37.8598C58.0753 37.8869 57.9418 37.8692 57.7876 37.8068C57.6289 37.7256 57.536 37.6287 57.509 37.5159L57.5168 37.4245L57.5247 37.3331C57.5425 35.9171 57.5062 34.5241 57.4157 33.154L57.3342 31.3245L57.1579 29.1001C57.1579 29.1001 57.1123 28.455 57.021 27.1646C56.9931 26.6344 56.9659 25.776 56.9394 24.5894C56.8956 23.2479 56.8454 22.3354 56.7889 21.8519C56.7942 21.791 56.7482 21.4342 56.6511 20.7815C56.5547 20.049 56.4941 19.5069 56.4692 19.155C56.4082 18.6526 56.3969 18.3571 56.4353 18.2684L56.6326 18.221C56.6936 18.2262 56.7616 18.2198 56.8368 18.2018C57.0624 18.1476 57.218 18.0505 57.3037 17.9107C57.4353 17.8791 57.5594 17.899 57.676 17.9704C57.8068 18.0185 57.8858 18.0989 57.9129 18.2117C58.1296 19.1141 58.4437 20.1322 58.8553 21.2661C59.0749 21.8496 59.251 22.3342 59.3834 22.72C60.1726 25.0953 61.7916 29.5182 64.2404 35.9886L64.2607 36.0732C64.3059 36.2612 64.2646 36.4202 64.1367 36.5503ZM61.6206 31.7862C60.7824 29.1243 59.4658 25.2154 57.6707 20.0594L57.9563 27.954C58.0431 30.2197 58.1543 31.6345 58.2897 32.1985C58.3123 32.2925 58.6898 32.2913 59.4222 32.1949C60.1546 32.0985 60.7934 31.9849 61.3386 31.8539L61.6206 31.7862Z" fill="url(#paint3_linear_4_38)"/>
<path d="M77.366 33.9982C77.093 33.7921 76.7271 33.1804 76.2682 32.1631C75.8094 31.1459 75.3455 29.9919 74.8765 28.7014C74.5284 27.6445 74.1154 26.6091 73.6375 25.5952C73.2373 24.6852 72.9326 24.2491 72.7233 24.2869L72.6377 24.3024C72.2192 24.378 72.034 24.549 72.0821 24.8154C72.3296 26.1852 72.7821 28.2547 73.4396 31.0239C73.8251 32.7224 74.0911 33.7058 74.2378 33.974L74.0972 34.5004L73.6976 34.5726L73.4281 34.3855C71.5356 25.6508 70.3006 19.6854 69.7231 16.4891C69.6853 16.2798 69.6639 16.1069 69.6588 15.9703C69.6728 15.8302 69.717 15.6945 69.7915 15.5632C69.8436 15.4163 69.9647 15.3256 70.155 15.2912C71.1253 15.1159 71.9483 15.2128 72.624 15.5819C73.2997 15.951 73.7184 16.5826 73.8799 17.4768L74.2563 19.56C74.3216 19.9215 74.2856 20.429 74.1483 21.0825C74.03 21.7326 73.8746 22.3402 73.682 22.9055L73.4399 23.6859C73.8245 24.6184 74.5498 26.2948 75.6158 28.7152C76.6973 31.1131 77.2804 32.383 77.365 32.5249C77.3875 32.5405 77.4151 32.5846 77.4479 32.6573C77.4997 32.7265 77.5869 32.8286 77.7095 32.9636C77.8908 33.2059 77.9986 33.4222 78.033 33.6125C78.0811 33.8788 78.0006 34.0309 77.7913 34.0687L77.366 33.9982ZM72.0237 23.6766C72.3852 23.6113 72.6759 23.3721 72.896 22.9591C73.1161 22.546 73.2601 22.0387 73.3283 21.437C73.423 20.2214 73.4085 19.2712 73.2847 18.5863C73.2056 18.1487 73.1118 17.7924 73.0032 17.5173C72.9135 17.2388 72.7824 16.9481 72.6099 16.6453C72.2612 16.0207 71.6589 15.7857 70.8027 15.9404C70.7076 15.9576 70.647 16.057 70.6208 16.2385C70.5913 16.401 70.5919 16.5679 70.6229 16.7391C70.8532 18.0138 71.0802 19.1614 71.3038 20.1819C71.5085 21.2058 71.726 22.3551 71.9563 23.6298L72.0237 23.6766Z" fill="url(#paint4_linear_4_38)"/>
<path d="M87.0804 32.3069C86.9268 32.3254 86.8189 32.0756 86.7565 31.5573C86.5202 30.2421 86.2808 28.5768 86.0381 26.5613C85.8856 25.2945 85.7588 24.1608 85.6579 23.1604L85.2776 19.7595C85.102 18.3007 84.8463 16.501 84.5107 14.3604C84.3195 14.2277 84.21 14.0461 84.1823 13.8158C84.1661 13.6814 84.2267 13.5378 84.3641 13.385C84.5183 13.2106 84.6627 13.1153 84.797 13.0992C84.9506 13.0807 85.1038 13.1401 85.2566 13.2775L85.6045 13.4985C85.7266 13.5422 85.9543 13.5732 86.2876 13.5915C86.6208 13.6098 86.8581 13.6397 86.9994 13.6811C87.3058 13.8 87.7255 14.0513 88.2585 14.435C88.7747 14.8402 89.126 15.09 89.3126 15.1843L89.2908 15.2454C89.3239 15.3583 89.4979 15.5905 89.8128 15.942C90.0586 16.2045 90.2637 16.4524 90.4281 16.6858C90.8415 17.5318 91.1326 18.6554 91.3013 20.0566C91.3314 20.3061 91.3483 20.528 91.3522 20.7223L91.4354 21.4133L91.4632 21.6436L91.469 21.935C91.513 22.2997 91.6052 22.5807 91.7458 22.7779C91.7046 23.406 91.7004 24.5847 91.7334 26.3138C91.7359 26.8198 91.7034 27.3592 91.6361 27.932C91.5688 28.5048 91.4611 28.9852 91.313 29.373C90.9272 30.3736 90.1881 31.2707 89.0958 32.0643L87.0804 32.3069ZM88.8801 31.2432C88.996 31.0735 89.1058 30.9337 89.2094 30.8238C89.2094 30.8238 89.2708 30.7678 89.3936 30.6556L89.5997 30.4263C90.7977 29.0553 91.1922 26.671 90.7831 23.2736L90.7173 22.7265C90.6796 22.5753 90.6503 22.4133 90.6296 22.2405L90.1643 19.3464C89.9726 18.24 89.4981 17.1288 88.7406 16.0127C88.381 15.4523 87.9297 15.0198 87.3868 14.7152C86.8607 14.3891 86.3289 14.2584 85.7914 14.3231C85.5611 14.3508 85.6597 16.1402 86.0872 19.6912C86.5818 23.7989 87.128 27.3648 87.7258 30.3891L87.7628 30.9396L87.8849 30.9833L87.9876 31.3507L88.8801 31.2432Z" fill="url(#paint5_linear_4_38)"/>
<path d="M103.771 30.5413C103.328 30.5701 103.061 30.4906 102.971 30.3026C102.875 30.3089 102.798 30.3236 102.742 30.3466L102.51 30.3616C102.086 30.3892 101.809 30.3103 101.681 30.1248C101.672 29.9898 101.742 29.869 101.89 29.7625L102.025 29.6085L102.865 29.554L102.973 29.4307L103.014 29.1665L103.02 28.8173C102.944 27.6405 102.847 26.5909 102.729 25.6686L102.601 24.6016L102.406 22.4928C102.357 21.7404 102.313 20.6099 102.273 19.1013L102.113 15.7406C102.018 14.2744 101.897 13.1585 101.751 12.3931C101.573 12.3465 101.282 12.3363 100.877 12.3626L100.56 12.4122C100.446 12.439 100.321 12.4568 100.186 12.4656C99.8195 12.4894 99.6256 12.3373 99.6043 12.0093C99.5993 11.9321 99.6811 11.8493 99.8497 11.7609C100.018 11.6725 100.161 11.6245 100.276 11.617C101.009 11.5694 101.745 11.5604 102.483 11.59C102.928 11.5804 103.378 11.6385 103.831 11.764C104.186 11.8572 104.37 12.0099 104.384 12.2221C104.387 12.2607 104.363 12.3398 104.312 12.4593L103.651 12.5604C103.508 12.4534 103.224 12.4137 102.8 12.4412L102.661 12.5374C102.73 12.7073 102.792 13.2167 102.847 14.0656C102.93 15.3389 102.995 16.4874 103.042 17.5112L103.208 20.9587C103.264 21.8269 103.371 22.8758 103.528 24.1056C103.677 25.5102 103.775 26.5694 103.822 27.2832L103.846 27.6594C103.835 27.7957 103.837 27.97 103.851 28.1822C103.88 28.6259 103.926 28.8942 103.99 28.9869L103.965 29.0466C103.978 29.2396 104.196 29.3222 104.621 29.2947C104.794 29.2834 104.938 29.2644 105.053 29.2376L105.487 29.2094C106.046 29.1731 106.335 29.29 106.352 29.5601C106.364 29.7337 106.315 29.8822 106.207 30.0054C106.097 30.1094 105.946 30.1677 105.753 30.1802C105.58 30.1914 105.424 30.1822 105.286 30.1524C105.131 30.1431 104.966 30.1441 104.793 30.1554C104.677 30.1629 104.506 30.2224 104.281 30.3339C104.057 30.4646 103.887 30.5338 103.771 30.5413Z" fill="url(#paint6_linear_4_38)"/>
<path d="M121.34 30.1335C121.185 30.1341 121.069 30.0766 120.991 29.9609C120.933 29.8451 120.874 29.6713 120.815 29.4396C120.795 29.285 120.756 29.1498 120.698 29.034L120.726 28.9469C120.568 28.0389 120.235 26.9285 119.727 25.6158L119.199 24.1099C119.161 24.0714 118.975 23.5791 118.643 22.633L118.408 21.938C116.647 16.5702 115.543 13.6648 115.097 13.2219C114.944 13.7445 114.869 14.4215 114.872 15.2528C114.874 15.6975 114.885 16.0841 114.906 16.4127L114.939 17.5436L114.913 18.2397C114.895 18.4524 114.886 18.6844 114.887 18.9358C114.889 19.3611 114.909 19.7284 114.949 20.0375C114.99 20.656 115.011 20.9653 115.011 20.9653L114.924 20.9656C114.937 24.1943 115.011 25.9727 115.148 26.3008L115.158 28.9108C115.236 29.0651 115.276 29.268 115.277 29.5193C115.277 29.674 115.22 29.8095 115.104 29.926C115.008 30.0424 114.882 30.1009 114.728 30.1015C114.322 30.1031 114.117 29.5819 114.113 28.5379L114.167 27.6097C114.205 27.3195 114.223 27.0004 114.221 26.6524C114.218 25.7245 114.183 24.3326 114.118 22.4768C114.053 20.6211 114.018 19.2292 114.014 18.3012C114.012 17.7405 114.038 16.8801 114.091 15.7199C114.145 14.579 114.171 13.7282 114.168 13.1675L114.167 12.7906C114.163 11.8432 114.335 11.2239 114.682 10.9325L114.769 11.0192L115.059 10.96C115.136 10.9791 115.223 11.0367 115.32 11.133C115.398 11.21 115.437 11.2969 115.437 11.3936L115.496 11.5673C115.496 11.606 115.496 11.6447 115.496 11.6833C115.516 11.7026 115.526 11.7122 115.526 11.7122C115.84 13.0836 116.544 15.0046 117.636 17.475C118.748 20.0806 119.442 21.8082 119.716 22.6578C119.912 23.3337 120.069 23.9325 120.187 24.454C120.56 26.0959 121 27.3605 121.507 28.2478L121.564 28.1606C121.992 23.8669 122.194 18.5977 122.169 12.3531L122.139 12.0052C122.119 11.9086 122.109 11.783 122.108 11.6283C122.107 11.2223 122.241 11.0188 122.512 11.0178C122.686 11.0171 122.831 11.1035 122.948 11.277C123.084 11.4505 123.152 11.6436 123.153 11.8562L123.161 13.7992L123.017 14.0318C123.024 15.8684 122.929 18.8848 122.733 23.081C122.537 27.2771 122.343 29.5592 122.151 29.9273L121.659 30.0453L121.659 30.0743L121.63 30.0454L121.34 30.1335Z" fill="url(#paint7_linear_4_38)"/>
<path d="M136.069 30.7545C135.181 30.6987 134.532 30.5513 134.121 30.3123C133.709 30.0733 133.417 29.6481 133.242 29.0366C133.088 28.407 132.976 27.4217 132.905 26.0806C132.796 24.1172 132.776 22.5952 132.844 21.5147C132.885 20.8587 132.971 20.1086 133.102 19.2645L133.39 17.452C133.578 16.0109 133.752 14.9274 133.914 14.2015C134.097 13.4575 134.418 12.8191 134.877 12.2862C135.358 11.7353 136.054 11.4402 136.967 11.4008C137.065 11.3875 137.22 11.3876 137.432 11.401C138.03 11.4386 138.321 11.5925 138.304 11.8626C138.297 11.9784 138.222 12.0803 138.081 12.1683C137.961 12.2381 137.833 12.2688 137.698 12.2603L137.41 12.2132L137.151 12.1678C136.823 12.1472 136.518 12.2345 136.234 12.4297C135.97 12.6262 135.738 12.9216 135.539 13.3158C135.073 14.2551 134.753 15.1842 134.579 16.103C134.348 17.3089 134.185 18.3641 134.089 19.2685L133.92 21.4953C133.861 22.4408 133.845 23.1468 133.874 23.6136C133.996 23.8343 134.062 24.1678 134.072 24.614C134.104 25.0422 134.115 25.6337 134.106 26.3886C134.102 27.0664 134.153 27.6507 134.257 28.1416C134.363 28.6132 134.58 29.0143 134.908 29.3448C135.273 29.6972 135.794 29.8946 136.469 29.9371C137.028 29.9723 137.443 29.6885 137.714 29.0856C138.025 28.4466 138.222 27.7809 138.304 27.0887C138.417 26.2241 138.492 25.4927 138.53 24.8946L138.63 23.3027C138.449 23.0976 138.117 22.9799 137.635 22.9495L137.404 22.935C137.306 22.9482 137.199 22.9511 137.083 22.9439C136.62 22.9147 136.396 22.7844 136.411 22.5528C136.431 22.2248 136.673 22.0754 137.136 22.1045C137.464 22.1252 137.734 22.1518 137.945 22.1845L138.58 22.2535C138.943 22.3344 139.228 22.4202 139.435 22.5107C139.662 22.6025 139.771 22.7159 139.762 22.851C139.747 23.1018 139.666 23.4551 139.521 23.9109C139.391 24.4451 139.32 24.8087 139.307 25.0016C139.256 25.812 139.23 26.5465 139.227 27.2049C139.204 27.8815 139.167 28.6249 139.116 29.4353C138.068 30.3767 137.053 30.8165 136.069 30.7545Z" fill="url(#paint8_linear_4_38)"/>
<path d="M159.3 33.5212C158.938 33.4595 158.792 33.2189 158.864 32.7997L158.922 32.4566C158.955 32.3836 158.98 32.29 159 32.1756L159.024 32.0327L159.1 28.4859C159.09 27.7389 159.093 27.2002 159.11 26.8697C159.166 25.5064 159.239 23.989 159.328 22.3175C159.396 20.9955 159.494 18.8155 159.62 15.7774L159.646 15.1053C159.727 12.9029 159.719 11.6856 159.622 11.4532C159.695 11.3677 159.795 11.2965 159.923 11.2398C160.05 11.1831 160.171 11.1644 160.285 11.1839C160.571 11.2327 160.754 11.3129 160.833 11.4244C160.931 11.5392 160.959 11.7205 160.916 11.9682L160.873 12.2255L160.824 12.5114L160.77 12.8258C160.298 19.1586 159.923 25.096 159.644 30.6381L159.702 30.6479C159.853 30.1049 160.226 28.6093 160.82 26.161L161.018 25.3417C161.565 22.9441 161.859 21.6802 161.901 21.5501C162.055 20.9881 162.313 20.169 162.673 19.0929L163.411 16.8358L163.721 15.5355C163.779 15.31 163.821 15.121 163.847 14.9686C163.895 14.8003 163.935 14.6797 163.967 14.6067L164.059 14.2399C164.063 14.2209 164.077 14.1939 164.102 14.1591C164.147 14.1274 164.201 14.0975 164.265 14.0691C164.532 14.1146 164.692 14.2105 164.745 14.357C164.793 14.4239 164.82 14.4971 164.826 14.5766C164.835 14.637 164.831 14.7149 164.815 14.8101C164.824 14.9882 164.828 15.0772 164.828 15.0772C164.847 16.1198 164.808 18.8197 164.712 23.1769C164.616 27.5341 164.519 30.4007 164.422 31.7766L164.498 31.8484L167.53 20.4509C167.692 19.7332 168.011 18.6109 168.487 17.0839C168.948 15.5345 169.262 14.2644 169.431 13.2734L169.451 12.9826L169.495 12.7253C169.538 12.4776 169.624 12.3158 169.755 12.24C169.888 12.1452 170.089 12.1205 170.356 12.166C170.47 12.1855 170.576 12.2526 170.674 12.3674C170.791 12.4855 170.84 12.6017 170.821 12.716C170.788 12.9066 170.653 13.0698 170.414 13.2056C170.429 13.2279 170.429 13.2867 170.413 13.382C170.393 13.4963 170.353 13.6169 170.292 13.7438C170.254 13.8549 170.22 13.9374 170.191 13.9914C169.689 15.6708 169.001 18.1522 168.127 21.4353L166.546 27.2554L165.933 29.4748L165.097 32.3036L164.705 33.7371C164.666 33.9658 164.599 34.1308 164.503 34.2322C164.427 34.3368 164.284 34.3712 164.074 34.3355C163.769 34.2834 163.607 34.1382 163.589 33.8998C163.571 33.7789 163.578 33.5056 163.611 33.0798L163.656 32.6461C163.699 29.6332 163.904 24.2942 164.27 16.6293L164.194 16.5575L164.16 16.5812L164.155 16.6098L160.064 31.9746L159.976 32.4892C159.849 33.2325 159.624 33.5765 159.3 33.5212Z" fill="url(#paint9_linear_4_38)"/>
<path d="M178.293 37.5083C176.094 36.9757 175.832 33.2521 177.508 26.3374L177.747 25.351C179.017 20.1086 180.328 17.6513 181.681 17.979C181.775 18.0018 181.9 18.0619 182.055 18.1592C182.606 18.5115 183.166 18.7865 183.735 18.9839C184.074 19.1456 184.342 19.5985 184.54 20.3426C184.77 21.1146 184.845 22.0777 184.765 23.2318C184.703 24.3905 184.531 25.5523 184.249 26.7173L184.158 26.8445C184.008 27.4646 183.883 28.0212 183.783 28.5143L183.402 30.2122C183.17 31.1705 182.923 32.0257 182.661 32.7779C182.266 33.9155 181.835 34.8753 181.367 35.6571C181.075 36.1234 180.775 36.4984 180.468 36.782C180.179 37.0701 179.848 37.2883 179.474 37.4364C179.118 37.589 178.725 37.613 178.293 37.5083ZM178.378 36.6636C179.111 36.8411 179.781 36.4564 180.388 35.5095C181 34.5437 181.476 33.5251 181.815 32.4535C182.163 31.3443 182.419 30.4515 182.583 29.775C182.765 29.0234 182.977 27.9012 183.219 26.4083C183.522 24.7508 183.743 23.6308 183.884 23.0483L183.826 22.7955L183.917 22.6683C184.117 21.8415 184.055 21.0706 183.731 20.3555C183.426 19.645 182.944 19.2101 182.287 19.0508C181.422 18.8414 180.805 19.1296 180.436 19.9154C180.33 20.1881 180.195 20.583 180.03 21.1C179.693 22.4905 179.407 23.4257 179.171 23.9057C179.103 24.1875 178.967 24.6223 178.765 25.2099L178.388 26.5209C178.288 26.9343 178.209 27.303 178.15 27.627L177.905 28.7612C177.691 29.6443 177.521 30.6771 177.393 31.8597C177.301 32.7326 177.26 33.4785 177.269 34.0974C177.278 34.7163 177.373 35.2666 177.555 35.7482C177.728 36.2674 178.002 36.5726 178.378 36.6636Z" fill="url(#paint10_linear_4_38)"/>
<path d="M194.875 41.886C194.727 41.5779 194.681 40.8665 194.739 39.752C194.796 38.6375 194.912 37.3993 195.086 36.0372C195.26 34.9381 195.366 33.8285 195.406 32.7084C195.466 31.7161 195.395 31.1889 195.191 31.1267L195.108 31.1013C194.701 30.977 194.459 31.0443 194.379 31.3031C193.973 32.6343 193.428 34.6815 192.745 37.4446C192.31 39.1312 192.097 40.1273 192.105 40.4329L191.739 40.8366L191.35 40.7179L191.196 40.4282C193.511 31.7958 195.143 25.9266 196.093 22.8204C196.155 22.617 196.215 22.4534 196.273 22.3297C196.349 22.2115 196.451 22.1111 196.577 22.0285C196.691 21.9216 196.84 21.8965 197.025 21.953C197.968 22.2412 198.655 22.704 199.087 23.3414C199.519 23.9788 199.602 24.732 199.337 25.6009L198.718 27.6255C198.61 27.9768 198.346 28.4115 197.925 28.9297C197.522 29.4536 197.106 29.9227 196.676 30.3372L196.104 30.9203C196.019 31.9254 195.896 33.7479 195.737 36.3878C195.601 39.0148 195.538 40.4108 195.548 40.5756C195.561 40.5998 195.566 40.6517 195.561 40.7313C195.576 40.8165 195.607 40.9472 195.654 41.1234C195.704 41.4218 195.701 41.6634 195.645 41.8483C195.565 42.1072 195.424 42.2055 195.221 42.1434L194.875 41.886ZM194.849 30.2639C195.2 30.3712 195.568 30.2916 195.953 30.0251C196.337 29.7586 196.698 29.3734 197.034 28.8696C197.674 27.8322 198.096 26.9806 198.3 26.315C198.429 25.8898 198.509 25.53 198.538 25.2357C198.586 24.9471 198.603 24.6287 198.588 24.2804C198.564 23.5655 198.136 23.0809 197.304 22.8266C197.211 22.7984 197.112 22.859 197.005 23.0084C196.905 23.1394 196.829 23.2881 196.778 23.4545C196.4 24.6932 196.076 25.8175 195.808 26.8272C195.521 27.8313 195.189 28.9527 194.81 30.1914L194.849 30.2639Z" fill="url(#paint11_linear_4_38)"/>
<path d="M204.199 45.0565C203.944 44.9638 203.866 44.6986 203.964 44.261C204.04 44.1652 204.167 43.8721 204.346 43.3817C204.956 41.7107 205.887 39.2413 207.14 35.9735C208.387 32.724 209.275 30.3726 209.805 28.9196L210.217 27.9586L210.597 27.171C210.643 27.0439 210.73 27.0035 210.857 27.0499C210.948 27.083 211.065 27.1566 211.209 27.2707L211.28 27.3277C211.135 27.7273 210.993 28.0873 210.856 28.4076L210.468 29.4702L209.385 32.4399C209.086 33.3184 208.734 34.3116 208.33 35.4196C208.279 35.5038 208.197 35.7003 208.084 36.0091L207.848 36.5713C207.698 36.9279 207.553 37.297 207.414 37.6784C207.261 38.0962 207.131 38.4809 207.024 38.8326L206.624 40.0141L206.462 40.2023L206.5 40.185C206.48 40.2395 206.457 40.2725 206.433 40.284L206.393 40.393C206.34 40.5383 206.321 40.6754 206.336 40.8042L205.3 43.39L205.241 43.5535C205.128 43.8622 205.071 44.0472 205.069 44.1083C205.036 44.1991 205.065 44.2611 205.156 44.2942L206.553 44.8653C206.97 45.0176 207.249 45.1293 207.387 45.2005C207.551 45.2601 207.651 45.2965 207.687 45.3098L207.769 45.3396C207.86 45.3727 207.93 45.4603 207.982 45.6024C208.039 45.7263 208.048 45.8428 208.008 45.9518C207.929 46.1697 207.741 46.2348 207.443 46.147C207.141 46.0162 206.391 45.7323 205.192 45.2952L205.237 45.3423C205.055 45.2761 204.879 45.2223 204.709 45.1808C204.55 45.1642 204.38 45.1227 204.199 45.0565Z" fill="url(#paint12_linear_4_38)"/>
<path d="M216.205 49.4463C216.063 49.3852 216.096 49.1148 216.302 48.6354C216.759 47.3796 217.388 45.8194 218.191 43.9549C218.696 42.783 219.156 41.7391 219.571 40.8234L220.951 37.6919C221.532 36.3423 222.216 34.6579 223.001 32.6385C222.902 32.4276 222.899 32.2157 222.991 32.0026C223.044 31.8783 223.169 31.7846 223.364 31.7214C223.585 31.6482 223.758 31.6383 223.882 31.6919C224.024 31.753 224.127 31.8814 224.19 32.077L224.38 32.4429C224.463 32.542 224.645 32.6832 224.924 32.8665C225.202 33.0497 225.393 33.1948 225.494 33.3016C225.699 33.5583 225.936 33.9865 226.204 34.586C226.447 35.1957 226.625 35.5882 226.739 35.7636L226.689 35.8054C226.661 35.9196 226.695 36.2078 226.79 36.67C226.871 37.0204 226.924 37.3378 226.949 37.6222C226.881 38.5614 226.568 39.6791 226.01 40.9753C225.911 41.2062 225.814 41.4066 225.72 41.5765L225.444 42.2158L225.353 42.4288L225.211 42.6837C225.066 43.0211 225.005 43.3104 225.027 43.5516C224.676 44.074 224.08 45.0909 223.24 46.6025C222.988 47.0412 222.689 47.4913 222.343 47.9527C221.997 48.4142 221.662 48.7753 221.339 49.0363C220.503 49.7076 219.413 50.1119 218.07 50.2492L216.205 49.4463ZM218.296 49.4309C218.482 49.3423 218.647 49.2766 218.791 49.2337C218.791 49.2337 218.873 49.2161 219.035 49.1808L219.329 49.0861C221.053 48.5027 222.592 46.6394 223.946 43.4964L224.164 42.9904C224.207 42.8407 224.263 42.6859 224.332 42.5261L225.384 39.79C225.774 38.7372 225.922 37.5379 225.828 36.1923C225.799 35.5272 225.626 34.9265 225.309 34.3903C225.018 33.844 224.624 33.4638 224.127 33.2497C223.914 33.158 223.1 34.7546 221.686 38.0397C220.049 41.8397 218.73 45.1972 217.727 48.1124L217.483 48.607L217.566 48.7061L217.47 49.0753L218.296 49.4309Z" fill="url(#paint13_linear_4_38)"/>
</g>
<defs>
<filter id="filter0_d_4_38" x="0.820557" y="3.36688" width="235.335" height="56.1911" filterUnits="userSpaceOnUse" color-interpolation-filters="sRGB">
<feFlood flood-opacity="0" result="BackgroundImageFix"/>
<feColorMatrix in="SourceAlpha" type="matrix" values="0 0 0 0 0 0 0 0 0 0 0 0 0 0 0 0 0 0 127 0" result="hardAlpha"/>
<feOffset/>
<feGaussianBlur stdDeviation="3.5"/>
<feComposite in2="hardAlpha" operator="out"/>
<feColorMatrix type="matrix" values="0 0 0 0 0 0 0 0 0 0 0 0 0 0 0 0 0 0 0.5 0"/>
<feBlend mode="normal" in2="BackgroundImageFix" result="effect1_dropShadow_4_38"/>
<feBlend mode="normal" in="SourceGraphic" in2="effect1_dropShadow_4_38" result="shape"/>
</filter>
<linearGradient id="paint0_linear_4_38" x1="7.13607" y1="31.6801" x2="20.3776" y2="26.2233" gradientUnits="userSpaceOnUse">
<stop stop-color="#FFCC6A"/>
<stop offset="0.333333" stop-color="#FFDCA8"/>
<stop offset="0.666667" stop-color="#FFBB54"/>
<stop offset="1" stop-color="#C89A57"/>
</linearGradient>
<linearGradient id="paint1_linear_4_38" x1="25.6573" y1="24.1611" x2="32.4206" y2="21.8074" gradientUnits="userSpaceOnUse">
<stop stop-color="#FFCC6A"/>
<stop offset="0.333333" stop-color="#FFDCA8"/>
<stop offset="0.666667" stop-color="#FFBB54"/>
<stop offset="1" stop-color="#C89A57"/>
</linearGradient>
<linearGradient id="paint2_linear_4_38" x1="37.8919" y1="19.9846" x2="45.7457" y2="17.6828" gradientUnits="userSpaceOnUse">
<stop stop-color="#FFCC6A"/>
<stop offset="0.333333" stop-color="#FFDCA8"/>
<stop offset="0.666667" stop-color="#FFBB54"/>
<stop offset="1" stop-color="#C89A57"/>
</linearGradient>
<linearGradient id="paint3_linear_4_38" x1="51.4007" y1="16.0981" x2="61.3645" y2="13.7789" gradientUnits="userSpaceOnUse">
<stop stop-color="#FFCC6A"/>
<stop offset="0.333333" stop-color="#FFDCA8"/>
<stop offset="0.666667" stop-color="#FFBB54"/>
<stop offset="1" stop-color="#C89A57"/>
</linearGradient>
<linearGradient id="paint4_linear_4_38" x1="67.0362" y1="12.545" x2="76.1068" y2="10.9653" gradientUnits="userSpaceOnUse">
<stop stop-color="#FFCC6A"/>
<stop offset="0.333333" stop-color="#FFDCA8"/>
<stop offset="0.666667" stop-color="#FFBB54"/>
<stop offset="1" stop-color="#C89A57"/>
</linearGradient>
<linearGradient id="paint5_linear_4_38" x1="81.9529" y1="10.015" x2="93.1353" y2="8.75621" gradientUnits="userSpaceOnUse">
<stop stop-color="#FFCC6A"/>
<stop offset="0.333333" stop-color="#FFDCA8"/>
<stop offset="0.666667" stop-color="#FFBB54"/>
<stop offset="1" stop-color="#C89A57"/>
</linearGradient>
<linearGradient id="paint6_linear_4_38" x1="98.7964" y1="8.21669" x2="105.945" y2="7.78793" gradientUnits="userSpaceOnUse">
<stop stop-color="#FFCC6A"/>
<stop offset="0.333333" stop-color="#FFDCA8"/>
<stop offset="0.666667" stop-color="#FFBB54"/>
<stop offset="1" stop-color="#C89A57"/>
</linearGradient>
<linearGradient id="paint7_linear_4_38" x1="112.039" y1="7.45387" x2="126.36" y2="7.53834" gradientUnits="userSpaceOnUse">
<stop stop-color="#FFCC6A"/>
<stop offset="0.333333" stop-color="#FFDCA8"/>
<stop offset="0.666667" stop-color="#FFBB54"/>
<stop offset="1" stop-color="#C89A57"/>
</linearGradient>
<linearGradient id="paint8_linear_4_38" x1="132.195" y1="7.66262" x2="142.4" y2="8.37688" gradientUnits="userSpaceOnUse">
<stop stop-color="#FFCC6A"/>
<stop offset="0.333333" stop-color="#FFDCA8"/>
<stop offset="0.666667" stop-color="#FFBB54"/>
<stop offset="1" stop-color="#C89A57"/>
</linearGradient>
<linearGradient id="paint9_linear_4_38" x1="159.113" y1="10.1806" x2="173.207" y2="12.7271" gradientUnits="userSpaceOnUse">
<stop stop-color="#FFCC6A"/>
<stop offset="0.333333" stop-color="#FFDCA8"/>
<stop offset="0.666667" stop-color="#FFBB54"/>
<stop offset="1" stop-color="#C89A57"/>
</linearGradient>
<linearGradient id="paint10_linear_4_38" x1="178.99" y1="13.8565" x2="189.906" y2="16.5904" gradientUnits="userSpaceOnUse">
<stop stop-color="#FFCC6A"/>
<stop offset="0.333333" stop-color="#FFDCA8"/>
<stop offset="0.666667" stop-color="#FFBB54"/>
<stop offset="1" stop-color="#C89A57"/>
</linearGradient>
<linearGradient id="paint11_linear_4_38" x1="195.509" y1="18.0839" x2="204.297" y2="20.8305" gradientUnits="userSpaceOnUse">
<stop stop-color="#FFCC6A"/>
<stop offset="0.333333" stop-color="#FFDCA8"/>
<stop offset="0.666667" stop-color="#FFBB54"/>
<stop offset="1" stop-color="#C89A57"/>
</linearGradient>
<linearGradient id="paint12_linear_4_38" x1="209.763" y1="22.6287" x2="217.436" y2="25.4754" gradientUnits="userSpaceOnUse">
<stop stop-color="#FFCC6A"/>
<stop offset="0.333333" stop-color="#FFDCA8"/>
<stop offset="0.666667" stop-color="#FFBB54"/>
<stop offset="1" stop-color="#C89A57"/>
</linearGradient>
<linearGradient id="paint13_linear_4_38" x1="222.973" y1="27.5963" x2="233.274" y2="32.1265" gradientUnits="userSpaceOnUse">
<stop stop-color="#FFCC6A"/>
<stop offset="0.333333" stop-color="#FFDCA8"/>
<stop offset="0.666667" stop-color="#FFBB54"/>
<stop offset="1" stop-color="#C89A57"/>
</linearGradient>
</defs>
</svg>
